PathFileType	4	(X/Y/Z)	/Users/itak/Documents/Research/Walk-IL/dataset/trc/00235_00009.trc
DataRate	CameraRate	NumFrames	NumMarkers	Units	OrigDataRate	OrigDataStartFrame	OrigNumFrames
100.000000	100.000000	4	53	mm	100.000000	105	841
Frame#	Time	RPSI			LPSI			L3			STRN			T10			C7			CLAV			RBAK			LBAK			LSHO			LUPA			LAEL			LAOL			LWTS			LWPS			LFRA			LIFD			LHPS			LHTS			RSHO			RUPA			RAEL			RAOL			RWTS			RWPS			RFRA			RIFD			RHTS			RHPS			RBHD			LFHD			RFHD			LBHD			LHIP			RHIP			RASI			LASI			LKNE			LTHI			LANK			LTIP			LTOE			LMT1			LMT5			LHEE			RKNE			RTHI			RANK			RTIP			RTOE			RMT1			RMT5			RHEE			
		X1	Y1	Z1	X2	Y2	Z2	X3	Y3	Z3	X4	Y4	Z4	X5	Y5	Z5	X6	Y6	Z6	X7	Y7	Z7	X8	Y8	Z8	X9	Y9	Z9	X10	Y10	Z10	X11	Y11	Z11	X12	Y12	Z12	X13	Y13	Z13	X14	Y14	Z14	X15	Y15	Z15	X16	Y16	Z16	X17	Y17	Z17	X18	Y18	Z18	X19	Y19	Z19	X20	Y20	Z20	X21	Y21	Z21	X22	Y22	Z22	X23	Y23	Z23	X24	Y24	Z24	X25	Y25	Z25	X26	Y26	Z26	X27	Y27	Z27	X28	Y28	Z28	X29	Y29	Z29	X30	Y30	Z30	X31	Y31	Z31	X32	Y32	Z32	X33	Y33	Z33	X34	Y34	Z34	X35	Y35	Z35	X36	Y36	Z36	X37	Y37	Z37	X38	Y38	Z38	X39	Y39	Z39	X40	Y40	Z40	X41	Y41	Z41	X42	Y42	Z42	X43	Y43	Z43	X44	Y44	Z44	X45	Y45	Z45	X46	Y46	Z46	X47	Y47	Z47	X48	Y48	Z48	X49	Y49	Z49	X50	Y50	Z50	X51	Y51	Z51	X52	Y52	Z52	X53	Y53	Z53	

106	1.05	-1.824632167816162	1041.718872070312	746.4800415039062	-7.599785804748535	1044.938232421875	625.535400390625	-9.611476898193359	1132.409790039062	668.1578979492188	241.0376129150391	1302.586303710938	644.0503540039062	-12.42956352233887	1259.94091796875	670.8153686523438	64.810302734375	1517.050048828125	656.4356079101562	223.62451171875	1422.223876953125	645.77392578125	-13.12806224822998	1385.262573242188	740.6417236328125	32.74728012084961	1479.927978515625	548.7788696289062	116.9972229003906	1473.060424804688	486.2175598144531	74.71605682373047	1356.31298828125	411.2548828125	82.11719512939453	1145.211791992188	385.2987060546875	14.68049430847168	1129.972290039062	439.5644836425781	182.5361633300781	914.5714111328125	436.4787902832031	148.1847229003906	895.0712280273438	361.6939086914062	103.8060684204102	1038.02001953125	371.5291748046875	182.7722320556641	726.47607421875	439.4068908691406	167.5529937744141	807.1026611328125	366.7499694824219	216.5243225097656	813.88330078125	414.0226135253906	136.5512084960938	1474.914672851562	820.6452026367188	121.1899566650391	1413.26416015625	891.3408813476562	90.15995025634766	1135.519165039062	943.7273559570312	44.0013542175293	1127.854248046875	860.2806396484375	213.2017211914062	916.023193359375	890.4578247070312	169.1540069580078	904.27490234375	960.9965209960938	115.5469207763672	1066.16748046875	954.99853515625	222.7540740966797	722.4874877929688	886.0610961914062	251.3271026611328	794.651611328125	903.043701171875	205.7495880126953	796.3582153320312	959.0455322265625	129.6792144775391	1665.333374023438	714.85791015625	302.1783142089844	1700.552856445312	571.3319091796875	327.3496704101562	1697.72607421875	667.9629516601562	139.5299835205078	1673.038452148438	575.14306640625	83.82863616943359	980.4862060546875	477.2711181640625	102.4574279785156	1004.937133789062	846.7178955078125	197.0660095214844	1046.207763671875	802.069091796875	187.4652099609375	1022.885925292969	520.4388427734375	125.2570343017578	497.4224243164062	552.8629150390625	122.2618637084961	639.1658935546875	512.8195190429688	11.75693130493164	33.4291877746582	601.9151611328125	64.36397552490234	274.0922241210938	566.5343627929688	229.1115264892578	40.98657989501953	645.3446044921875	164.4267120361328	33.239990234375	692.3401489257812	139.3115844726562	37.47761917114258	579.4012451171875	-47.20432281494141	39.23517227172852	657.3098754882812	206.7141571044922	517.6488647460938	816.6012573242188	186.961181640625	785.7305297851562	844.639892578125	9.546374320983887	60.06097412109375	829.8460693359375	188.2660217285156	396.9741821289062	809.3837890625	218.6900939941406	42.74755477905273	794.3311157226562	165.2994689941406	44.49518585205078	749.4044799804688	115.1592407226562	40.40240478515625	858.7578735351562	-50.69962310791016	70.64418029785156	770.1932373046875	
107	1.06	-1.030205368995667	1041.28369140625	745.8353881835938	-7.227443218231201	1044.635864257812	624.8912963867188	-9.092267990112305	1132.353759765625	667.539306640625	241.840087890625	1302.164916992188	642.6273193359375	-11.71807098388672	1259.922119140625	670.163330078125	65.98991394042969	1516.883178710938	655.5143432617188	224.5970306396484	1421.837524414062	644.3619995117188	-12.06080532073975	1385.2822265625	739.910400390625	33.47996139526367	1479.789794921875	547.9878540039062	117.5635223388672	1472.76025390625	485.1597595214844	74.84322357177734	1356.054443359375	410.3385314941406	82.00141143798828	1144.952880859375	384.3914184570312	14.62656593322754	1129.813598632812	438.8024597167969	182.1609802246094	914.1414794921875	435.3219909667969	147.59033203125	894.7113647460938	360.5967407226562	103.441291809082	1037.744995117188	370.5522766113281	182.0375061035156	726.0722045898438	438.2144470214844	166.7685852050781	806.7050170898438	365.5801391601562	215.8401794433594	813.3895263671875	412.7663269042969	138.1068420410156	1474.697265625	819.50927734375	122.7994079589844	1413.093872070312	890.26171875	91.238525390625	1135.380859375	942.5791015625	45.24449157714844	1127.743896484375	859.095703125	214.2063140869141	915.8372802734375	889.6502685546875	170.0198822021484	904.0875854492188	960.0896606445312	116.4598388671875	1066.026733398438	953.923583984375	223.8377685546875	722.3265380859375	885.2083740234375	252.363525390625	794.4984741210938	902.3161010742188	206.6273193359375	796.1535034179688	958.1900024414062	131.8124237060547	1665.320922851562	713.6969604492188	303.4825744628906	1699.661010742188	568.9600219726562	329.294921875	1696.885498046875	665.4144897460938	140.7304992675781	1672.76513671875	573.90380859375	83.61729431152344	980.2857055664062	476.1320190429688	103.7481689453125	1004.66455078125	845.565673828125	198.0748596191406	1045.9228515625	800.526611328125	187.4093170166016	1022.706787109375	518.9320678710938	125.3998794555664	497.2337036132812	551.973388671875	122.2964553833008	638.9788208007812	511.8629760742188	11.72121143341064	33.38803482055664	601.8927001953125	64.39973449707031	273.9445190429688	566.1747436523438	229.0937957763672	40.98900604248047	645.3246459960938	164.4150695800781	33.25323486328125	692.3096923828125	139.3197937011719	37.44526290893555	579.3655395507812	-47.20622634887695	39.22214889526367	657.3147583007812	214.0927276611328	518.3681030273438	815.139892578125	190.4030914306641	786.1355590820312	843.1109008789062	10.68856430053711	63.57306289672852	830.1882934570312	194.9133758544922	397.9334411621094	808.2149658203125	218.9707336425781	42.77783584594727	794.4388427734375	165.7988891601562	45.04011917114258	749.380615234375	116.0322189331055	41.57934951782227	858.6632690429688	-49.30044937133789	75.38735961914062	770.6065063476562	
108	1.07	-0.15314681828022	1040.902587890625	745.1920776367188	-6.785992622375488	1044.402587890625	624.258056640625	-8.483881950378418	1132.276000976562	666.9271240234375	242.7116241455078	1301.774169921875	641.2001953125	-10.927001953125	1259.893920898438	669.5332641601562	67.20405578613281	1516.721313476562	654.6193237304688	225.6122589111328	1421.479125976562	642.9550170898438	-10.92427444458008	1385.289428710938	739.1863403320312	34.23355865478516	1479.657836914062	547.2232055664062	118.1461563110352	1472.487182617188	484.1174621582031	74.96835327148438	1355.821044921875	409.444091796875	81.86097717285156	1144.716674804688	383.5201416015625	14.59727764129639	1129.689208984375	438.120849609375	181.7386474609375	913.7136840820312	434.1509399414062	146.9119262695312	894.3680419921875	359.5047302246094	103.036003112793	1037.494262695312	369.6015930175781	181.1903839111328	725.6608276367188	437.0052185058594	165.8853912353516	806.3156127929688	364.4072570800781	215.0621032714844	812.8827514648438	411.4834289550781	139.7000274658203	1474.487426757812	818.3959350585938	124.4558258056641	1412.916870117188	889.2033081054688	92.29570007324219	1135.232421875	941.382568359375	46.56924819946289	1127.612670898438	857.8135375976562	215.2581329345703	915.6463012695312	888.9589233398438	170.8372802734375	903.8870239257812	959.2416381835938	117.3338317871094	1065.880249023438	952.8351440429688	225.05419921875	722.178466796875	884.511474609375	253.4755554199219	794.3634033203125	901.7755126953125	207.4903411865234	795.9468994140625	957.4524536132812	133.9860229492188	1665.324829101562	712.5481567382812	304.8117980957031	1698.791381835938	566.5989990234375	331.2554016113281	1696.069702148438	662.8726806640625	141.9422302246094	1672.512817382812	572.658447265625	83.44622802734375	980.1165771484375	475.0069885253906	105.104377746582	1004.418151855469	844.4104614257812	199.1654357910156	1045.634643554688	798.9736938476562	187.3859710693359	1022.510864257812	517.4242553710938	125.450080871582	497.0465087890625	551.06884765625	122.2378234863281	638.7920532226562	510.8883361816406	11.68241119384766	33.34524917602539	601.8681030273438	64.38253784179688	273.8004455566406	565.7991943359375	229.0703125	40.9952278137207	645.3076171875	164.4000244140625	33.26895523071289	692.2835083007812	139.3266448974609	37.41095352172852	579.3275756835938	-47.20893859863281	39.20659255981445	657.3206176757812	221.4884948730469	519.17431640625	813.6685180664062	193.8740081787109	786.5985107421875	841.6234741210938	12.03644943237305	67.31182098388672	830.5240478515625	201.6916656494141	399.01220703125	806.964599609375	219.3817291259766	42.80495452880859	794.493408203125	166.3889923095703	45.62666320800781	749.2990112304688	117.0633697509766	43.01724243164062	858.5603637695312	-47.68824768066406	80.33831024169922	771.0440673828125	
109	1.08	0.8188366889953613	1040.560424804688	744.5582275390625	-6.270963668823242	1044.223388671875	623.6439819335938	-7.780967712402344	1132.173217773438	666.3247680664062	243.6591186523438	1301.40869140625	639.7698974609375	-10.04074096679688	1259.84765625	668.9312744140625	68.456787109375	1516.560913085938	653.7470703125	226.673828125	1421.142333984375	641.5535888671875	-9.693509101867676	1385.272094726562	738.4766235351562	35.01917266845703	1479.522583007812	546.4819946289062	118.748420715332	1472.233642578125	483.0873413085938	75.09698486328125	1355.607055664062	408.5692749023438	81.69371032714844	1144.496215820312	382.6783752441406	14.58878231048584	1129.593872070312	437.5136108398438	181.2627563476562	913.284423828125	432.9677429199219	146.1498718261719	894.0350341796875	358.4199829101562	102.593620300293	1037.256103515625	368.6749572753906	180.2548675537109	725.2373657226562	435.7848815917969	164.9114837646484	805.9310913085938	363.2365417480469	214.2069091796875	812.3601684570312	410.1763000488281	141.3393402099609	1474.276123046875	817.3087768554688	126.1629409790039	1412.721435546875	888.1661376953125	93.34042358398438	1135.063842773438	940.1438598632812	47.9643669128418	1127.457153320312	856.4356079101562	216.3679046630859	915.4413452148438	888.3838500976562	171.6152954101562	903.6654663085938	958.4525756835938	118.1817779541016	1065.71728515625	951.7363891601562	226.4127655029297	722.033203125	883.9815673828125	254.6752319335938	794.2374267578125	901.4251098632812	208.3494567871094	795.7308349609375	956.8380737304688	136.1976623535156	1665.339477539062	711.4127197265625	306.1580505371094	1697.95263671875	564.249755859375	333.2268371582031	1695.284912109375	660.338623046875	143.1683654785156	1672.277709960938	571.413330078125	83.31961822509766	979.9732055664062	473.907470703125	106.5677261352539	1004.186279296875	843.2562866210938	200.3417053222656	1045.332885742188	797.4168701171875	187.4033966064453	1022.29638671875	515.91943359375	125.4095230102539	496.8627624511719	550.1549072265625	122.0865859985352	638.6071166992188	509.9024963378906	11.64082336425781	33.30118942260742	601.8414916992188	64.31336975097656	273.6565551757812	565.4080810546875	229.0415191650391	41.00546646118164	645.2915649414062	164.3814086914062	33.28800964355469	692.2598876953125	139.3318939208984	37.37479782104492	579.2867431640625	-47.21431732177734	39.18790817260742	657.3265380859375	228.8711853027344	520.0663452148438	812.1802368164062	197.3750152587891	787.10791015625	840.1863403320312	13.6323413848877	71.22410583496094	830.8413696289062	208.5592193603516	400.1893920898438	805.6285400390625	220.0042724609375	42.84664916992188	794.4535522460938	167.1243896484375	46.25922775268555	749.1482543945312	118.2942581176758	44.7210578918457	858.425048828125	-45.84135055541992	85.40052032470703	771.4879150390625	
